M48
;Layer_Color=9474304
;FILE_FORMAT=2:5
INCH,LZ
;TYPE=PLATED
T1F00S00C0.00787
T2F00S00C0.01181
T3F00S00C0.02402
T4F00S00C0.03543
T5F00S00C0.10000
T6F00S00C0.10039
;TYPE=NON_PLATED
T7F00S00C0.02756
T8F00S00C0.06693
%
T01
X0411118Y0166694
Y0171025
X0415449
Y0166694
X041978
Y0171025
Y0175356
X0415449
X0411118
X0304031
X0299701
Y0171025
X029537
Y0166694
X0299701
X0304031
Y0171025
X029537Y0175356
X0188284
X0183953
Y0171025
X0179622
Y0166694
X0183953
X0188284
Y0171025
X0179622Y0175356
Y0369942
Y0374273
X0183953
Y0369942
X0188284
Y0374273
Y0378604
X0183953
X0179622
X029537
Y0374273
X0299701
Y0369942
X0304031
Y0374273
Y0378604
X0299701
X029537Y0369942
X0411118
Y0374273
X0415449
Y0369942
X041978
Y0374273
Y0378604
X0415449
X0411118
T02
X0136541Y0107525
X0138753Y0115925
X0135853Y0126525
X0153453Y0146325
X0159253Y0144625
X0161118Y0136938
X0171053Y0144066
X0180553Y0132125
X0194153Y0130325
X0194953Y0136125
X0201053Y0153356
X0209596Y0147725
X0216663Y0133025
X020971Y0124025
X0251601Y0126525
X0254501Y0115925
X0252289Y0107525
X0275001Y0114713
X0276866Y0136938
X0275001Y0144625
X0269201Y0146325
X0286801Y0144066
X0296301Y0132125
X0309901Y0130325
X0310701Y0136125
X0159253Y0114713
X0325458Y0124025
X0332411Y0133025
X0325344Y0147725
X0316801Y0153356
X0384949Y0146325
X0390749Y0144625
X0392614Y0136938
X0402549Y0144066
X0412049Y0132125
X0425649Y0130325
X0426449Y0136125
X0432549Y0153356
X0441092Y0147725
X0448159Y0133025
X0441206Y0124025
X0390749Y0114713
X0370249Y0115925
X0368037Y0107525
X0367349Y0126525
X0369249Y0183917
X0371449Y0188725
X0370049Y0192996
X0370469Y0197273
X0372548Y0195303
X0372568Y0199223
X0369556Y020117
X0371049Y0203725
X0370949Y020666
X0370249Y0209825
X0381449Y0213525
X0384449Y0214025
X0386949Y0216025
X0391349Y0218525
X0391249Y0213325
X0394149
X0397049
X0400149
X0403249Y0213425
X040613Y0212325
X0408149Y0207225
X0407535Y0203826
X0410849Y0203403
X0410349Y0199925
X0415703Y0199425
X0422049
X0422949Y0185953
X0426649Y0179425
X0427449Y0176525
Y0173625
X043921Y0181139
X0442612Y0179925
X044708Y0177924
X0447027Y0189774
X044708Y0199628
X043921
X0437721Y0192561
X0436639Y0210096
X044708Y0213246
X0446904Y0222561
X0438949
X0411049Y0227425
X0410949Y0230725
X0413849Y0233625
X0406349Y0221325
X0410691Y0216425
X0408949Y0194808
X0411894Y0192594
X0409049Y0189425
X0406249Y0191625
X0405749Y0184525
X0410849Y0183325
X0414749Y0182525
X0394661Y0179577
X0388749Y0178925
X0385875Y0178899
X0380949Y0179025
X0378549Y0177225
X0386385Y0194308
X0386403Y0198388
X0394464
Y0194184
X0392594Y0223325
X0394049Y0225925
X0393349Y0228825
X0389149Y0229289
X0385949Y0228525
X0381602Y0226827
X0380291Y0217025
X0368049Y0228925
X0376349Y0240625
X0379849Y0241025
X0384049Y0240925
Y0252025
X0389149Y0257225
X0394249Y0261025
X0404649Y0265125
X0423449Y0264725
X0427549Y0249925
X0403249Y0243725
X0379049Y0257425
X0370349Y0264413
X0391949Y0273425
X0368037Y0310773
X0331156Y0222561
X0323201
X0320891Y0210096
X0323462Y0199628
X0331331
X0331279Y0189774
X0331331Y0177924
X0326864Y0179925
X0323462Y0181139
X0321973Y0192561
X0331331Y0213246
X0326201Y0157225
X0402649Y0169825
X0416949Y0156925
X0441949Y0157225
X0301201Y0156925
X0286901Y0169825
X0278913Y0179577
X0273001Y0178925
X0270127Y0178899
X0265201Y0179025
X0262801Y0177225
X0253501Y0183917
X0255701Y0188725
X0254301Y0192996
X0254721Y0197273
X02568Y0195303
X025682Y0199223
X0253808Y020117
X0255301Y0203725
X0255201Y020666
X0254501Y0209825
X0265701Y0213525
X0268701Y0214025
X0271201Y0216025
X0275601Y0218525
X0275501Y0213325
X0278401
X0281301
X0284401
X0287501Y0213425
X0290382Y0212325
X0292401Y0207225
X0291787Y0203826
X0295101Y0203403
X0294601Y0199925
X0299955Y0199425
X0306301
X0307201Y0185953
X0310901Y0179425
X0311701Y0176525
Y0173625
X0299001Y0182525
X0295101Y0183325
X0290001Y0184525
X0290501Y0191625
X0293301Y0189425
X0293201Y0194808
X0296146Y0192594
X0278716Y0194184
Y0198388
X0270655
X0270636Y0194308
X0264543Y0217025
X0265854Y0226827
X0270201Y0228525
X0273401Y0229289
X0277601Y0228825
X0278301Y0225925
X0276846Y0223325
X0290601Y0221325
X0294943Y0216425
X0295301Y0227425
X0295201Y0230725
X0298101Y0233625
X0287501Y0243725
X0268301Y0240925
X0264101Y0241025
X0260601Y0240625
X0268301Y0252025
X0273401Y0257225
X0278501Y0261025
X0288901Y0265125
X0307701Y0264725
X0311801Y0249925
X0263301Y0257425
X0254601Y0264413
X0276201Y0273425
X0252289Y0310773
X0252301Y0228925
X0215408Y0222561
X0207453
X0205143Y0210096
X0207714Y0199628
X0215583
X0215531Y0189774
X0215583Y0177924
X0211116Y0179925
X0207714Y0181139
X0206224Y0192561
X0191453Y0185953
X0195153Y0179425
X0195953Y0176525
Y0173625
X0183253Y0182525
X0179353Y0183325
X0174253Y0184525
X0174753Y0191625
X0177553Y0189425
X0177453Y0194808
X0180398Y0192594
X0178853Y0199925
X0179353Y0203403
X0176038Y0203826
X0176653Y0207225
X0174634Y0212325
X0171753Y0213425
X0168653Y0213325
X0165553
X0162653
X0159753
X0159853Y0218525
X0161098Y0223325
X0162553Y0225925
X0161853Y0228825
X0157653Y0229289
X0179453Y0230725
X0179553Y0227425
X0182353Y0233625
X0174853Y0221325
X0179195Y0216425
X0184207Y0199425
X0190553
X0162968Y0198388
Y0194184
X0163165Y0179577
X0157253Y0178925
X0171153Y0169825
X0185453Y0156925
X0210453Y0157225
X0215583Y0213246
X0196053Y0249925
X0191953Y0264725
X0173153Y0265125
X0162753Y0261025
X0157653Y0257225
X0160453Y0273425
X0171753Y0243725
X0152553Y0240925
X0148353Y0241025
X0144853Y0240625
X0150105Y0226827
X0154453Y0228525
X0155453Y0216025
X0152953Y0214025
X0149953Y0213525
X0148794Y0217025
X0138753Y0209825
X0139453Y020666
X0139553Y0203725
X013806Y020117
X0138973Y0197273
X0141052Y0195303
X0141071Y0199223
X0138553Y0192996
X0139953Y0188725
X0137753Y0183917
X0147053Y0177225
X0149453Y0179025
X0154379Y0178899
X0154888Y0194308
X0154907Y0198388
X0136553Y0228925
X0138853Y0264413
X0147553Y0257425
X0152553Y0252025
X0136541Y0310773
X0138753Y0319173
X0135853Y0329773
X0153453Y0349573
X0154379Y0382147
X0149453Y0382273
X0147053Y0380473
X0137753Y0387165
X0139953Y0391973
X0138553Y0396244
X0138973Y0400521
X0141052Y0398552
X0141071Y0402471
X013806Y0404418
X0139553Y0406973
X0139453Y0409908
X0138753Y0413073
X0149953Y0416773
X0152953Y0417273
X0155453Y0419273
X0148794Y0420273
X0150105Y0430075
X0154453Y0431773
X0152553Y0444173
X0148353Y0444273
X0144853Y0443873
X0152553Y0455273
X0147553Y0460673
X0138853Y0467661
X0136553Y0432173
X0154907Y0401636
X0154888Y0397556
X0162968Y0397432
Y0401636
X0162653Y0416573
X0159753
X0159853Y0421773
X0161098Y0426573
X0162553Y0429173
X0161853Y0432073
X0157653Y0432537
X0179453Y0433973
X0179553Y0430673
X0182353Y0436873
X0174853Y0424573
X0174634Y0415573
X0171753Y0416673
X0168653Y0416573
X0165553
X0179195Y0419673
X0176653Y0410473
X0176038Y0407074
X0179353Y0406651
X0178853Y0403173
X0184207Y0402673
X0190553
X0191453Y0389201
X0195153Y0382673
X0195953Y0379773
Y0376873
X0207714Y0384387
X0211116Y0383173
X0215583Y0381172
X0215531Y0393022
X0215583Y0402876
X0207714
X0206224Y0395809
X0205143Y0413344
X0215583Y0416495
X0215408Y0425809
X0207453
X0196053Y0453173
X0191953Y0467973
X0173153Y0468373
X0162753Y0464273
X0157653Y0460473
X0171753Y0446973
X0177453Y0398056
X0180398Y0395842
X0177553Y0392673
X0174753Y0394873
X0174253Y0387773
X0179353Y0386573
X0183253Y0385773
X0163165Y0382825
X0157253Y0382173
X0171153Y0373073
X0171053Y0347314
X0159253Y0347873
X0161118Y0340186
X0159253Y0317961
X0180553Y0335373
X0194153Y0333573
X0194953Y0339373
X0201053Y0356604
X0210453Y0360473
X0209596Y0350973
X0216663Y0336273
X020971Y0327273
X0251601Y0329773
X0254501Y0319173
X0275001Y0317961
X0276866Y0340186
X0275001Y0347873
X0269201Y0349573
X0286801Y0347314
X0296301Y0335373
X0309901Y0333573
X0310701Y0339373
X0301201Y0360173
X0286901Y0373073
X0278913Y0382825
X0273001Y0382173
X0270127Y0382147
X0265201Y0382273
X0262801Y0380473
X0253501Y0387165
X0255701Y0391973
X0254301Y0396244
X0254721Y0400521
X02568Y0398552
X025682Y0402471
X0253808Y0404418
X0255301Y0406973
X0255201Y0409908
X0254501Y0413073
X0265701Y0416773
X0268701Y0417273
X0271201Y0419273
X0275601Y0421773
X0275501Y0416573
X0278401
X0281301
X0284401
X0287501Y0416673
X0290382Y0415573
X0292401Y0410473
X0291787Y0407074
X0295101Y0406651
X0294601Y0403173
X0299955Y0402673
X0306301
X0307201Y0389201
X0310901Y0382673
X0311701Y0379773
Y0376873
X0299001Y0385773
X0295101Y0386573
X0290001Y0387773
X0290501Y0394873
X0293301Y0392673
X0293201Y0398056
X0296146Y0395842
X0278716Y0397432
Y0401636
X0270655
X0270636Y0397556
X0264543Y0420273
X0265854Y0430075
X0270201Y0431773
X0273401Y0432537
X0277601Y0432073
X0278301Y0429173
X0276846Y0426573
X0290601Y0424573
X0294943Y0419673
X0295301Y0430673
X0295201Y0433973
X0298101Y0436873
X0287501Y0446973
X0268301Y0444173
X0264101Y0444273
X0260601Y0443873
X0268301Y0455273
X0273401Y0460473
X0278501Y0464273
X0288901Y0468373
X0307701Y0467973
X0311801Y0453173
X0263301Y0460673
X0254601Y0467661
X0252301Y0432173
X0185453Y0360173
X0316801Y0356604
X0326201Y0360473
X0325344Y0350973
X0332411Y0336273
X0325458Y0327273
X0367349Y0329773
X0370249Y0319173
X0390749Y0317961
X0392614Y0340186
X0390749Y0347873
X0384949Y0349573
X0402549Y0347314
X0412049Y0335373
X0425649Y0333573
X0426449Y0339373
X0432549Y0356604
X0441949Y0360473
X0441092Y0350973
X0448159Y0336273
X0441206Y0327273
X0416949Y0360173
X0402649Y0373073
X0394661Y0382825
X0388749Y0382173
X0385875Y0382147
X0380949Y0382273
X0378549Y0380473
X0369249Y0387165
X0371449Y0391973
X0370049Y0396244
X0370469Y0400521
X0372548Y0398552
X0372568Y0402471
X0369556Y0404418
X0371049Y0406973
X0370949Y0409908
X0370249Y0413073
X0381449Y0416773
X0384449Y0417273
X0386949Y0419273
X0391349Y0421773
X0391249Y0416573
X0394149
X0397049
X0400149
X0403249Y0416673
X040613Y0415573
X0408149Y0410473
X0407535Y0407074
X0410849Y0406651
X0410349Y0403173
X0415703Y0402673
X0422049
X0422949Y0389201
X0426649Y0382673
X0427449Y0379773
Y0376873
X043921Y0384387
X0442612Y0383173
X044708Y0381172
X0447027Y0393022
X044708Y0402876
X043921
X0437721Y0395809
X0436639Y0413344
X044708Y0416495
X0446904Y0425809
X0438949
X0411049Y0430673
X0410949Y0433973
X0413849Y0436873
X0406349Y0424573
X0410691Y0419673
X0408949Y0398056
X0411894Y0395842
X0409049Y0392673
X0406249Y0394873
X0405749Y0387773
X0410849Y0386573
X0414749Y0385773
X0394464Y0397432
Y0401636
X0386403
X0386385Y0397556
X0380291Y0420273
X0381602Y0430075
X0385949Y0431773
X0389149Y0432537
X0393349Y0432073
X0394049Y0429173
X0392594Y0426573
X0384049Y0444173
X0379849Y0444273
X0376349Y0443873
X0384049Y0455273
X0389149Y0460473
X0394249Y0464273
X0404649Y0468373
X0423449Y0467973
X0427549Y0453173
X0403249Y0446973
X0379049Y0460673
X0370349Y0467661
X0368049Y0432173
X0331156Y0425809
X0323201
X0320891Y0413344
X0323462Y0402876
X0331331
X0331279Y0393022
X0331331Y0381172
X0326864Y0383173
X0323462Y0384387
X0321973Y0395809
X0331331Y0416495
X0391949Y0476673
X0276201
X0160453
T03
X0179353Y0103825
X0295101
X0410849
Y0307073
X0295101
X0179353
T04
X0132953Y0155925
X0222953
X0248701
X0338701
X0364449
X0454449
Y0165925
Y0175925
Y0185925
Y0195925
Y0205925
Y0215925
Y0225925
Y0235925
Y0245925
Y0255925
Y0265925
X0364449
Y0255925
Y0245925
Y0235925
Y0225925
Y0215925
Y0205925
Y0195925
Y0185925
Y0175925
Y0165925
X0338701
Y0175925
Y0185925
Y0195925
Y0205925
Y0215925
Y0225925
Y0235925
Y0245925
Y0255925
Y0265925
X0248701
Y0255925
Y0245925
Y0235925
Y0225925
Y0215925
Y0205925
Y0195925
Y0185925
Y0175925
Y0165925
X0222953
Y0175925
Y0185925
Y0195925
Y0205925
Y0215925
Y0225925
Y0235925
Y0245925
Y0255925
Y0265925
X0132953
Y0255925
Y0245925
Y0235925
Y0225925
Y0215925
Y0205925
Y0195925
Y0185925
Y0175925
Y0165925
Y0359173
Y0369173
Y0379173
Y0389173
Y0399173
Y0409173
Y0419173
Y0429173
Y0439173
Y0449173
Y0459173
X0222953
Y0449173
Y0439173
Y0429173
Y0419173
Y0409173
Y0399173
Y0389173
Y0379173
Y0369173
Y0359173
X0248701
Y0369173
Y0379173
Y0389173
Y0399173
Y0409173
Y0419173
Y0429173
Y0439173
Y0449173
Y0459173
X0338701
Y0449173
Y0439173
Y0429173
Y0419173
Y0409173
Y0399173
Y0389173
Y0379173
Y0369173
Y0359173
X0364449
Y0369173
Y0379173
Y0389173
Y0399173
Y0409173
Y0419173
Y0429173
Y0439173
Y0449173
Y0459173
X0454449
Y0449173
Y0439173
Y0429173
Y0419173
Y0409173
Y0399173
Y0389173
Y0379173
Y0369173
Y0359173
Y0469173
X0364449
X0338701
X0248701
X0222953
X0132953
T05
X0336201Y0278425
X0366949
X0451949
X0251201
X0220453
X0135453
X0336201Y0481673
X0366949
X0451949
X0251201
X0220453
X0135453
T06
X011811Y011811
X0472441
Y0472441
X011811
T07
X040128Y027128
X0417618
X030187
X0285532
X0186122
X0169783
X040128Y0474528
X0417618
X030187
X0285532
X0186122
X0169783
T08
X0149053Y0112525
Y0140084
X0206853Y0139884
Y0112325
X0264801Y0112525
Y0140084
X0322601Y0139884
Y0112325
X0380549Y0112525
Y0140084
X0438349Y0139884
Y0112325
X0149053Y0315773
Y0343332
X0206853Y0343132
Y0315573
X0264801Y0315773
Y0343332
X0322601Y0343132
Y0315573
X0380549Y0315773
Y0343332
X0438349Y0343132
Y0315573
M30
