G04*
G04 #@! TF.GenerationSoftware,Altium Limited,Altium Designer,19.0.10 (269)*
G04*
G04 Layer_Color=8388736*
%FSLAX25Y25*%
%MOIN*%
G70*
G01*
G75*
%ADD52C,0.00394*%
%ADD53R,0.05524X0.04540*%
%ADD54R,0.03556X0.01981*%
%ADD55R,0.01981X0.03556*%
%ADD56R,0.03950X0.04343*%
%ADD57R,0.04343X0.03950*%
%ADD58C,0.03647*%
%ADD59C,0.03209*%
%ADD60C,0.03013*%
%ADD61R,0.13792X0.13792*%
%ADD62O,0.02769X0.02178*%
%ADD63O,0.02178X0.02769*%
%ADD64R,0.11824X0.09461*%
%ADD65R,0.11824X0.11824*%
%ADD66O,0.03162X0.07493*%
%ADD67R,0.05800X0.05800*%
%ADD68O,0.06312X0.03162*%
%ADD69R,0.14973X0.09461*%
%ADD70R,0.05600X0.09600*%
%ADD71R,0.03740X0.01496*%
%ADD72R,0.02375X0.06115*%
%ADD73R,0.07887X0.08280*%
%ADD74R,0.08280X0.08280*%
%ADD75R,0.07887X0.05721*%
G04:AMPARAMS|DCode=76|XSize=224.53mil|YSize=224.53mil|CornerRadius=0mil|HoleSize=0mil|Usage=FLASHONLY|Rotation=0.000|XOffset=0mil|YOffset=0mil|HoleType=Round|Shape=RoundedRectangle|*
%AMROUNDEDRECTD76*
21,1,0.22453,0.22453,0,0,0.0*
21,1,0.22453,0.22453,0,0,0.0*
1,1,0.00000,0.11227,-0.11227*
1,1,0.00000,-0.11227,-0.11227*
1,1,0.00000,-0.11227,0.11227*
1,1,0.00000,0.11227,0.11227*
%
%ADD76ROUNDEDRECTD76*%
%ADD77C,0.01784*%
%ADD78C,0.09937*%
%ADD79C,0.05622*%
%ADD80C,0.06706*%
%ADD81R,0.06706X0.06706*%
%ADD82C,0.07493*%
%ADD83C,0.03556*%
%ADD84C,0.10800*%
D52*
X174967Y257467D02*
G03*
X174967Y257467I-1969J0D01*
G01*
X290715D02*
G03*
X290715Y257467I-1969J0D01*
G01*
X406463D02*
G03*
X406463Y257467I-1969J0D01*
G01*
X174967Y460715D02*
G03*
X174967Y460715I-1969J0D01*
G01*
X290715D02*
G03*
X290715Y460715I-1969J0D01*
G01*
X406463D02*
G03*
X406463Y460715I-1969J0D01*
G01*
D53*
X199130Y203264D02*
D03*
X190468D02*
D03*
Y210154D02*
D03*
X199130D02*
D03*
X314878Y203264D02*
D03*
X306216D02*
D03*
Y210154D02*
D03*
X314878D02*
D03*
X430626Y203264D02*
D03*
X421964D02*
D03*
Y210154D02*
D03*
X430626D02*
D03*
X199130Y406512D02*
D03*
X190468D02*
D03*
Y413402D02*
D03*
X199130D02*
D03*
X314878Y406512D02*
D03*
X306216D02*
D03*
Y413402D02*
D03*
X314878D02*
D03*
X430626Y406512D02*
D03*
X421964D02*
D03*
Y413402D02*
D03*
X430626D02*
D03*
D54*
X178284Y140662D02*
D03*
Y138694D02*
D03*
Y136725D02*
D03*
Y134757D02*
D03*
X173756D02*
D03*
Y136725D02*
D03*
Y138694D02*
D03*
Y140662D02*
D03*
X294032D02*
D03*
Y138694D02*
D03*
Y136725D02*
D03*
Y134757D02*
D03*
X289504D02*
D03*
Y136725D02*
D03*
Y138694D02*
D03*
Y140662D02*
D03*
X409780D02*
D03*
Y138694D02*
D03*
Y136725D02*
D03*
Y134757D02*
D03*
X405252D02*
D03*
Y136725D02*
D03*
Y138694D02*
D03*
Y140662D02*
D03*
X178284Y343910D02*
D03*
Y341942D02*
D03*
Y339973D02*
D03*
Y338005D02*
D03*
X173756D02*
D03*
Y339973D02*
D03*
Y341942D02*
D03*
Y343910D02*
D03*
X294032D02*
D03*
Y341942D02*
D03*
Y339973D02*
D03*
Y338005D02*
D03*
X289504D02*
D03*
Y339973D02*
D03*
Y341942D02*
D03*
Y343910D02*
D03*
X409780D02*
D03*
Y341942D02*
D03*
Y339973D02*
D03*
Y338005D02*
D03*
X405252D02*
D03*
Y339973D02*
D03*
Y341942D02*
D03*
Y343910D02*
D03*
D55*
X211116Y160998D02*
D03*
X213084D02*
D03*
X215053D02*
D03*
X217021D02*
D03*
Y165525D02*
D03*
X215053D02*
D03*
X213084D02*
D03*
X211116D02*
D03*
X326864Y160998D02*
D03*
X328832D02*
D03*
X330801D02*
D03*
X332769D02*
D03*
Y165525D02*
D03*
X330801D02*
D03*
X328832D02*
D03*
X326864D02*
D03*
X442612Y160998D02*
D03*
X444580D02*
D03*
X446549D02*
D03*
X448517D02*
D03*
Y165525D02*
D03*
X446549D02*
D03*
X444580D02*
D03*
X442612D02*
D03*
X211116Y364246D02*
D03*
X213084D02*
D03*
X215053D02*
D03*
X217021D02*
D03*
Y368773D02*
D03*
X215053D02*
D03*
X213084D02*
D03*
X211116D02*
D03*
X326864Y364246D02*
D03*
X328832D02*
D03*
X330801D02*
D03*
X332769D02*
D03*
Y368773D02*
D03*
X330801D02*
D03*
X328832D02*
D03*
X326864D02*
D03*
X442612Y364246D02*
D03*
X444580D02*
D03*
X446549D02*
D03*
X448517D02*
D03*
Y368773D02*
D03*
X446549D02*
D03*
X444580D02*
D03*
X442612D02*
D03*
D56*
X149459Y269725D02*
D03*
X143947D02*
D03*
X175408Y217925D02*
D03*
X169896D02*
D03*
X201759Y225225D02*
D03*
X196247D02*
D03*
X149258Y274825D02*
D03*
X143747D02*
D03*
X213509Y272025D02*
D03*
X207997D02*
D03*
X183416Y217425D02*
D03*
X188928D02*
D03*
X182953Y189425D02*
D03*
X188465D02*
D03*
X206659Y176931D02*
D03*
X201147D02*
D03*
X184556Y125225D02*
D03*
X190068D02*
D03*
X173047Y117925D02*
D03*
X178559D02*
D03*
X211297Y172225D02*
D03*
X216809D02*
D03*
X200597Y169525D02*
D03*
X206109D02*
D03*
X206009Y159725D02*
D03*
X200497D02*
D03*
X206109Y164625D02*
D03*
X200597D02*
D03*
X191609Y151825D02*
D03*
X186097D02*
D03*
X184556Y141525D02*
D03*
X190068D02*
D03*
X184556Y146625D02*
D03*
X190068D02*
D03*
X197597Y272025D02*
D03*
X203109D02*
D03*
X144909Y216125D02*
D03*
X139397D02*
D03*
X207997Y266325D02*
D03*
X213509D02*
D03*
X197597Y266425D02*
D03*
X203109D02*
D03*
X265207Y269725D02*
D03*
X259695D02*
D03*
X291156Y217925D02*
D03*
X285644D02*
D03*
X317507Y225225D02*
D03*
X311995D02*
D03*
X265007Y274825D02*
D03*
X259495D02*
D03*
X329257Y272025D02*
D03*
X323745D02*
D03*
X299164Y217425D02*
D03*
X304676D02*
D03*
X298701Y189425D02*
D03*
X304213D02*
D03*
X322407Y176931D02*
D03*
X316895D02*
D03*
X300304Y125225D02*
D03*
X305816D02*
D03*
X288795Y117925D02*
D03*
X294307D02*
D03*
X327045Y172225D02*
D03*
X332557D02*
D03*
X316345Y169525D02*
D03*
X321857D02*
D03*
X321757Y159725D02*
D03*
X316245D02*
D03*
X321857Y164625D02*
D03*
X316345D02*
D03*
X307357Y151825D02*
D03*
X301845D02*
D03*
X300304Y141525D02*
D03*
X305816D02*
D03*
X300304Y146625D02*
D03*
X305816D02*
D03*
X313345Y272025D02*
D03*
X318857D02*
D03*
X260657Y216125D02*
D03*
X255145D02*
D03*
X323745Y266325D02*
D03*
X329257D02*
D03*
X313345Y266425D02*
D03*
X318857D02*
D03*
X380955Y269725D02*
D03*
X375443D02*
D03*
X406904Y217925D02*
D03*
X401392D02*
D03*
X433255Y225225D02*
D03*
X427743D02*
D03*
X380755Y274825D02*
D03*
X375243D02*
D03*
X445005Y272025D02*
D03*
X439493D02*
D03*
X414913Y217425D02*
D03*
X420424D02*
D03*
X414449Y189425D02*
D03*
X419961D02*
D03*
X438155Y176931D02*
D03*
X432643D02*
D03*
X416052Y125225D02*
D03*
X421564D02*
D03*
X404543Y117925D02*
D03*
X410055D02*
D03*
X442793Y172225D02*
D03*
X448305D02*
D03*
X432093Y169525D02*
D03*
X437605D02*
D03*
X437505Y159725D02*
D03*
X431993D02*
D03*
X437605Y164625D02*
D03*
X432093D02*
D03*
X423105Y151825D02*
D03*
X417593D02*
D03*
X416052Y141525D02*
D03*
X421564D02*
D03*
X416052Y146625D02*
D03*
X421564D02*
D03*
X429093Y272025D02*
D03*
X434605D02*
D03*
X376405Y216125D02*
D03*
X370893D02*
D03*
X439493Y266325D02*
D03*
X445005D02*
D03*
X429093Y266425D02*
D03*
X434605D02*
D03*
X149459Y472973D02*
D03*
X143947D02*
D03*
X175408Y421173D02*
D03*
X169896D02*
D03*
X201759Y428473D02*
D03*
X196247D02*
D03*
X149258Y478073D02*
D03*
X143747D02*
D03*
X213509Y475273D02*
D03*
X207997D02*
D03*
X183416Y420673D02*
D03*
X188928D02*
D03*
X182953Y392673D02*
D03*
X188465D02*
D03*
X206659Y380179D02*
D03*
X201147D02*
D03*
X184556Y328473D02*
D03*
X190068D02*
D03*
X173047Y321173D02*
D03*
X178559D02*
D03*
X211297Y375473D02*
D03*
X216809D02*
D03*
X200597Y372773D02*
D03*
X206109D02*
D03*
X206009Y362973D02*
D03*
X200497D02*
D03*
X206109Y367873D02*
D03*
X200597D02*
D03*
X191609Y355073D02*
D03*
X186097D02*
D03*
X184556Y344773D02*
D03*
X190068D02*
D03*
X184556Y349873D02*
D03*
X190068D02*
D03*
X197597Y475273D02*
D03*
X203109D02*
D03*
X144909Y419373D02*
D03*
X139397D02*
D03*
X207997Y469573D02*
D03*
X213509D02*
D03*
X197597Y469673D02*
D03*
X203109D02*
D03*
X265207Y472973D02*
D03*
X259695D02*
D03*
X291156Y421173D02*
D03*
X285644D02*
D03*
X317507Y428473D02*
D03*
X311995D02*
D03*
X265007Y478073D02*
D03*
X259495D02*
D03*
X329257Y475273D02*
D03*
X323745D02*
D03*
X299164Y420673D02*
D03*
X304676D02*
D03*
X298701Y392673D02*
D03*
X304213D02*
D03*
X322407Y380179D02*
D03*
X316895D02*
D03*
X300304Y328473D02*
D03*
X305816D02*
D03*
X288795Y321173D02*
D03*
X294307D02*
D03*
X327045Y375473D02*
D03*
X332557D02*
D03*
X316345Y372773D02*
D03*
X321857D02*
D03*
X321757Y362973D02*
D03*
X316245D02*
D03*
X321857Y367873D02*
D03*
X316345D02*
D03*
X307357Y355073D02*
D03*
X301845D02*
D03*
X300304Y344773D02*
D03*
X305816D02*
D03*
X300304Y349873D02*
D03*
X305816D02*
D03*
X313345Y475273D02*
D03*
X318857D02*
D03*
X260657Y419373D02*
D03*
X255145D02*
D03*
X323745Y469573D02*
D03*
X329257D02*
D03*
X313345Y469673D02*
D03*
X318857D02*
D03*
X380955Y472973D02*
D03*
X375443D02*
D03*
X406904Y421173D02*
D03*
X401392D02*
D03*
X433255Y428473D02*
D03*
X427743D02*
D03*
X380755Y478073D02*
D03*
X375243D02*
D03*
X445005Y475273D02*
D03*
X439493D02*
D03*
X414913Y420673D02*
D03*
X420424D02*
D03*
X414449Y392673D02*
D03*
X419961D02*
D03*
X438155Y380179D02*
D03*
X432643D02*
D03*
X416052Y328473D02*
D03*
X421564D02*
D03*
X404543Y321173D02*
D03*
X410055D02*
D03*
X442793Y375473D02*
D03*
X448305D02*
D03*
X432093Y372773D02*
D03*
X437605D02*
D03*
X437505Y362973D02*
D03*
X431993D02*
D03*
X437605Y367873D02*
D03*
X432093D02*
D03*
X423105Y355073D02*
D03*
X417593D02*
D03*
X416052Y344773D02*
D03*
X421564D02*
D03*
X416052Y349873D02*
D03*
X421564D02*
D03*
X429093Y475273D02*
D03*
X434605D02*
D03*
X376405Y419373D02*
D03*
X370893D02*
D03*
X439493Y469573D02*
D03*
X445005D02*
D03*
X429093Y469673D02*
D03*
X434605D02*
D03*
D57*
X155053Y269619D02*
D03*
Y275131D02*
D03*
X138992Y169719D02*
D03*
Y175231D02*
D03*
X182153Y207013D02*
D03*
Y212525D02*
D03*
X184753Y136031D02*
D03*
Y130519D02*
D03*
X190053D02*
D03*
Y136031D02*
D03*
X173553Y122913D02*
D03*
Y128425D02*
D03*
X178453D02*
D03*
Y122913D02*
D03*
X173953Y152281D02*
D03*
Y146769D02*
D03*
X178853Y152281D02*
D03*
Y146769D02*
D03*
X139453Y226481D02*
D03*
Y220969D02*
D03*
X141104Y159269D02*
D03*
Y164781D02*
D03*
X143153Y169669D02*
D03*
Y175181D02*
D03*
X270801Y269619D02*
D03*
Y275131D02*
D03*
X254740Y169719D02*
D03*
Y175231D02*
D03*
X297901Y207013D02*
D03*
Y212525D02*
D03*
X300501Y136031D02*
D03*
Y130519D02*
D03*
X305801D02*
D03*
Y136031D02*
D03*
X289301Y122913D02*
D03*
Y128425D02*
D03*
X294201D02*
D03*
Y122913D02*
D03*
X289701Y152281D02*
D03*
Y146769D02*
D03*
X294601Y152281D02*
D03*
Y146769D02*
D03*
X255201Y226481D02*
D03*
Y220969D02*
D03*
X256852Y159269D02*
D03*
Y164781D02*
D03*
X258901Y169669D02*
D03*
Y175181D02*
D03*
X386549Y269619D02*
D03*
Y275131D02*
D03*
X370488Y169719D02*
D03*
Y175231D02*
D03*
X413649Y207013D02*
D03*
Y212525D02*
D03*
X416249Y136031D02*
D03*
Y130519D02*
D03*
X421549D02*
D03*
Y136031D02*
D03*
X405049Y122913D02*
D03*
Y128425D02*
D03*
X409949D02*
D03*
Y122913D02*
D03*
X405449Y152281D02*
D03*
Y146769D02*
D03*
X410349Y152281D02*
D03*
Y146769D02*
D03*
X370949Y226481D02*
D03*
Y220969D02*
D03*
X372600Y159269D02*
D03*
Y164781D02*
D03*
X374649Y169669D02*
D03*
Y175181D02*
D03*
X155053Y472867D02*
D03*
Y478379D02*
D03*
X138992Y372967D02*
D03*
Y378479D02*
D03*
X182153Y410261D02*
D03*
Y415773D02*
D03*
X184753Y339279D02*
D03*
Y333768D02*
D03*
X190053D02*
D03*
Y339279D02*
D03*
X173553Y326161D02*
D03*
Y331673D02*
D03*
X178453D02*
D03*
Y326161D02*
D03*
X173953Y355529D02*
D03*
Y350017D02*
D03*
X178853Y355529D02*
D03*
Y350017D02*
D03*
X139453Y429729D02*
D03*
Y424217D02*
D03*
X141104Y362517D02*
D03*
Y368029D02*
D03*
X143153Y372917D02*
D03*
Y378429D02*
D03*
X270801Y472867D02*
D03*
Y478379D02*
D03*
X254740Y372967D02*
D03*
Y378479D02*
D03*
X297901Y410261D02*
D03*
Y415773D02*
D03*
X300501Y339279D02*
D03*
Y333768D02*
D03*
X305801D02*
D03*
Y339279D02*
D03*
X289301Y326161D02*
D03*
Y331673D02*
D03*
X294201D02*
D03*
Y326161D02*
D03*
X289701Y355529D02*
D03*
Y350017D02*
D03*
X294601Y355529D02*
D03*
Y350017D02*
D03*
X255201Y429729D02*
D03*
Y424217D02*
D03*
X256852Y362517D02*
D03*
Y368029D02*
D03*
X258901Y372917D02*
D03*
Y378429D02*
D03*
X386549Y472867D02*
D03*
Y478379D02*
D03*
X370488Y372967D02*
D03*
Y378479D02*
D03*
X413649Y410261D02*
D03*
Y415773D02*
D03*
X416249Y339279D02*
D03*
Y333768D02*
D03*
X421549D02*
D03*
Y339279D02*
D03*
X405049Y326161D02*
D03*
Y331673D02*
D03*
X409949D02*
D03*
Y326161D02*
D03*
X405449Y355529D02*
D03*
Y350017D02*
D03*
X410349Y355529D02*
D03*
Y350017D02*
D03*
X370949Y429729D02*
D03*
Y424217D02*
D03*
X372600Y362517D02*
D03*
Y368029D02*
D03*
X374649Y372917D02*
D03*
Y378429D02*
D03*
D58*
X182963Y109609D02*
D03*
X175357D02*
D03*
X298711D02*
D03*
X291105D02*
D03*
X414459D02*
D03*
X406853D02*
D03*
X182963Y312857D02*
D03*
X175357D02*
D03*
X298711D02*
D03*
X291105D02*
D03*
X414459D02*
D03*
X406853D02*
D03*
D59*
X179160Y109609D02*
D03*
X294908D02*
D03*
X410656D02*
D03*
X179160Y312857D02*
D03*
X294908D02*
D03*
X410656D02*
D03*
D60*
X175357Y101329D02*
D03*
X183353D02*
D03*
X291105D02*
D03*
X299101D02*
D03*
X406853D02*
D03*
X414849D02*
D03*
X175357Y304577D02*
D03*
X183353D02*
D03*
X291105D02*
D03*
X299101D02*
D03*
X406853D02*
D03*
X414849D02*
D03*
D61*
X183953Y171025D02*
D03*
X299701D02*
D03*
X415449D02*
D03*
X183953Y374273D02*
D03*
X299701D02*
D03*
X415449D02*
D03*
D62*
X192910Y176931D02*
D03*
Y174962D02*
D03*
Y172994D02*
D03*
Y171025D02*
D03*
Y169057D02*
D03*
Y167088D02*
D03*
Y165120D02*
D03*
X174996D02*
D03*
Y167088D02*
D03*
Y169057D02*
D03*
Y171025D02*
D03*
Y172994D02*
D03*
Y174962D02*
D03*
Y176931D02*
D03*
X308658D02*
D03*
Y174962D02*
D03*
Y172994D02*
D03*
Y171025D02*
D03*
Y169057D02*
D03*
Y167088D02*
D03*
Y165120D02*
D03*
X290744D02*
D03*
Y167088D02*
D03*
Y169057D02*
D03*
Y171025D02*
D03*
Y172994D02*
D03*
Y174962D02*
D03*
Y176931D02*
D03*
X424406D02*
D03*
Y174962D02*
D03*
Y172994D02*
D03*
Y171025D02*
D03*
Y169057D02*
D03*
Y167088D02*
D03*
Y165120D02*
D03*
X406492D02*
D03*
Y167088D02*
D03*
Y169057D02*
D03*
Y171025D02*
D03*
Y172994D02*
D03*
Y174962D02*
D03*
Y176931D02*
D03*
X192910Y380179D02*
D03*
Y378210D02*
D03*
Y376242D02*
D03*
Y374273D02*
D03*
Y372305D02*
D03*
Y370336D02*
D03*
Y368368D02*
D03*
X174996D02*
D03*
Y370336D02*
D03*
Y372305D02*
D03*
Y374273D02*
D03*
Y376242D02*
D03*
Y378210D02*
D03*
Y380179D02*
D03*
X308658D02*
D03*
Y378210D02*
D03*
Y376242D02*
D03*
Y374273D02*
D03*
Y372305D02*
D03*
Y370336D02*
D03*
Y368368D02*
D03*
X290744D02*
D03*
Y370336D02*
D03*
Y372305D02*
D03*
Y374273D02*
D03*
Y376242D02*
D03*
Y378210D02*
D03*
Y380179D02*
D03*
X424406D02*
D03*
Y378210D02*
D03*
Y376242D02*
D03*
Y374273D02*
D03*
Y372305D02*
D03*
Y370336D02*
D03*
Y368368D02*
D03*
X406492D02*
D03*
Y370336D02*
D03*
Y372305D02*
D03*
Y374273D02*
D03*
Y376242D02*
D03*
Y378210D02*
D03*
Y380179D02*
D03*
D63*
X189858Y162068D02*
D03*
X187890D02*
D03*
X185921D02*
D03*
X183953D02*
D03*
X181984D02*
D03*
X180016D02*
D03*
X178047D02*
D03*
Y179982D02*
D03*
X180016D02*
D03*
X181984D02*
D03*
X183953D02*
D03*
X185921D02*
D03*
X187890D02*
D03*
X189858D02*
D03*
X305606Y162068D02*
D03*
X303638D02*
D03*
X301669D02*
D03*
X299701D02*
D03*
X297732D02*
D03*
X295764D02*
D03*
X293795D02*
D03*
Y179982D02*
D03*
X295764D02*
D03*
X297732D02*
D03*
X299701D02*
D03*
X301669D02*
D03*
X303638D02*
D03*
X305606D02*
D03*
X421354Y162068D02*
D03*
X419386D02*
D03*
X417417D02*
D03*
X415449D02*
D03*
X413480D02*
D03*
X411512D02*
D03*
X409543D02*
D03*
Y179982D02*
D03*
X411512D02*
D03*
X413480D02*
D03*
X415449D02*
D03*
X417417D02*
D03*
X419386D02*
D03*
X421354D02*
D03*
X189858Y365317D02*
D03*
X187890D02*
D03*
X185921D02*
D03*
X183953D02*
D03*
X181984D02*
D03*
X180016D02*
D03*
X178047D02*
D03*
Y383230D02*
D03*
X180016D02*
D03*
X181984D02*
D03*
X183953D02*
D03*
X185921D02*
D03*
X187890D02*
D03*
X189858D02*
D03*
X305606Y365317D02*
D03*
X303638D02*
D03*
X301669D02*
D03*
X299701D02*
D03*
X297732D02*
D03*
X295764D02*
D03*
X293795D02*
D03*
Y383230D02*
D03*
X295764D02*
D03*
X297732D02*
D03*
X299701D02*
D03*
X301669D02*
D03*
X303638D02*
D03*
X305606D02*
D03*
X421354Y365317D02*
D03*
X419386D02*
D03*
X417417D02*
D03*
X415449D02*
D03*
X413480D02*
D03*
X411512D02*
D03*
X409543D02*
D03*
Y383230D02*
D03*
X411512D02*
D03*
X413480D02*
D03*
X415449D02*
D03*
X417417D02*
D03*
X419386D02*
D03*
X421354D02*
D03*
D64*
X134486Y116068D02*
D03*
X163620Y108194D02*
D03*
X192286Y115868D02*
D03*
X221420Y107994D02*
D03*
X250234Y116068D02*
D03*
X279368Y108194D02*
D03*
X308034Y115868D02*
D03*
X337168Y107994D02*
D03*
X365982Y116068D02*
D03*
X395116Y108194D02*
D03*
X423782Y115868D02*
D03*
X452916Y107994D02*
D03*
X134486Y319317D02*
D03*
X163620Y311442D02*
D03*
X192286Y319116D02*
D03*
X221420Y311243D02*
D03*
X250234Y319317D02*
D03*
X279368Y311442D02*
D03*
X308034Y319116D02*
D03*
X337168Y311243D02*
D03*
X365982Y319317D02*
D03*
X395116Y311442D02*
D03*
X423782Y319116D02*
D03*
X452916Y311243D02*
D03*
D65*
X163620Y145202D02*
D03*
X221420Y145002D02*
D03*
X279368Y145202D02*
D03*
X337168Y145002D02*
D03*
X395116Y145202D02*
D03*
X452916Y145002D02*
D03*
X163620Y348450D02*
D03*
X221420Y348250D02*
D03*
X279368Y348450D02*
D03*
X337168Y348250D02*
D03*
X395116Y348450D02*
D03*
X452916Y348250D02*
D03*
D66*
X142553Y234949D02*
D03*
X147553D02*
D03*
X152553D02*
D03*
X157553D02*
D03*
X142553Y262902D02*
D03*
X147553D02*
D03*
X152553D02*
D03*
X157553D02*
D03*
X258301Y234949D02*
D03*
X263301D02*
D03*
X268301D02*
D03*
X273301D02*
D03*
X258301Y262902D02*
D03*
X263301D02*
D03*
X268301D02*
D03*
X273301D02*
D03*
X374049Y234949D02*
D03*
X379049D02*
D03*
X384049D02*
D03*
X389049D02*
D03*
X374049Y262902D02*
D03*
X379049D02*
D03*
X384049D02*
D03*
X389049D02*
D03*
X142553Y438197D02*
D03*
X147553D02*
D03*
X152553D02*
D03*
X157553D02*
D03*
X142553Y466150D02*
D03*
X147553D02*
D03*
X152553D02*
D03*
X157553D02*
D03*
X258301Y438197D02*
D03*
X263301D02*
D03*
X268301D02*
D03*
X273301D02*
D03*
X258301Y466150D02*
D03*
X263301D02*
D03*
X268301D02*
D03*
X273301D02*
D03*
X374049Y438197D02*
D03*
X379049D02*
D03*
X384049D02*
D03*
X389049D02*
D03*
X374049Y466150D02*
D03*
X379049D02*
D03*
X384049D02*
D03*
X389049D02*
D03*
D67*
X144653Y280625D02*
D03*
X151253D02*
D03*
X205253D02*
D03*
X211853D02*
D03*
X195953Y217425D02*
D03*
X202553D02*
D03*
X260401Y280625D02*
D03*
X267001D02*
D03*
X321001D02*
D03*
X327601D02*
D03*
X311701Y217425D02*
D03*
X318301D02*
D03*
X376149Y280625D02*
D03*
X382749D02*
D03*
X436749D02*
D03*
X443349D02*
D03*
X427449Y217425D02*
D03*
X434049D02*
D03*
X144653Y483873D02*
D03*
X151253D02*
D03*
X205253D02*
D03*
X211853D02*
D03*
X195953Y420673D02*
D03*
X202553D02*
D03*
X260401Y483873D02*
D03*
X267001D02*
D03*
X321001D02*
D03*
X327601D02*
D03*
X311701Y420673D02*
D03*
X318301D02*
D03*
X376149Y483873D02*
D03*
X382749D02*
D03*
X436749D02*
D03*
X443349D02*
D03*
X427449Y420673D02*
D03*
X434049D02*
D03*
D68*
X187959Y243825D02*
D03*
Y238825D02*
D03*
X166699Y258825D02*
D03*
Y253825D02*
D03*
Y248825D02*
D03*
Y243825D02*
D03*
Y238825D02*
D03*
Y233825D02*
D03*
Y228825D02*
D03*
Y223825D02*
D03*
X187959Y258825D02*
D03*
Y253825D02*
D03*
Y248825D02*
D03*
Y233825D02*
D03*
Y228825D02*
D03*
Y223825D02*
D03*
X303707Y243825D02*
D03*
Y238825D02*
D03*
X282448Y258825D02*
D03*
Y253825D02*
D03*
Y248825D02*
D03*
Y243825D02*
D03*
Y238825D02*
D03*
Y233825D02*
D03*
Y228825D02*
D03*
Y223825D02*
D03*
X303707Y258825D02*
D03*
Y253825D02*
D03*
Y248825D02*
D03*
Y233825D02*
D03*
Y228825D02*
D03*
Y223825D02*
D03*
X419455Y243825D02*
D03*
Y238825D02*
D03*
X398196Y258825D02*
D03*
Y253825D02*
D03*
Y248825D02*
D03*
Y243825D02*
D03*
Y238825D02*
D03*
Y233825D02*
D03*
Y228825D02*
D03*
Y223825D02*
D03*
X419455Y258825D02*
D03*
Y253825D02*
D03*
Y248825D02*
D03*
Y233825D02*
D03*
Y228825D02*
D03*
Y223825D02*
D03*
X187959Y447073D02*
D03*
Y442073D02*
D03*
X166699Y462073D02*
D03*
Y457073D02*
D03*
Y452073D02*
D03*
Y447073D02*
D03*
Y442073D02*
D03*
Y437073D02*
D03*
Y432073D02*
D03*
Y427073D02*
D03*
X187959Y462073D02*
D03*
Y457073D02*
D03*
Y452073D02*
D03*
Y437073D02*
D03*
Y432073D02*
D03*
Y427073D02*
D03*
X303707Y447073D02*
D03*
Y442073D02*
D03*
X282448Y462073D02*
D03*
Y457073D02*
D03*
Y452073D02*
D03*
Y447073D02*
D03*
Y442073D02*
D03*
Y437073D02*
D03*
Y432073D02*
D03*
Y427073D02*
D03*
X303707Y462073D02*
D03*
Y457073D02*
D03*
Y452073D02*
D03*
Y437073D02*
D03*
Y432073D02*
D03*
Y427073D02*
D03*
X419455Y447073D02*
D03*
Y442073D02*
D03*
X398196Y462073D02*
D03*
Y457073D02*
D03*
Y452073D02*
D03*
Y447073D02*
D03*
Y442073D02*
D03*
Y437073D02*
D03*
Y432073D02*
D03*
Y427073D02*
D03*
X419455Y462073D02*
D03*
Y457073D02*
D03*
Y452073D02*
D03*
Y437073D02*
D03*
Y432073D02*
D03*
Y427073D02*
D03*
D69*
X205609Y233724D02*
D03*
X321357D02*
D03*
X437105D02*
D03*
X205609Y436973D02*
D03*
X321357D02*
D03*
X437105D02*
D03*
D70*
X196509Y258125D02*
D03*
X205609D02*
D03*
X214709D02*
D03*
X312257D02*
D03*
X321357D02*
D03*
X330457D02*
D03*
X428005D02*
D03*
X437105D02*
D03*
X446205D02*
D03*
X196509Y461373D02*
D03*
X205609D02*
D03*
X214709D02*
D03*
X312257D02*
D03*
X321357D02*
D03*
X330457D02*
D03*
X428005D02*
D03*
X437105D02*
D03*
X446205D02*
D03*
D71*
X154307Y220857D02*
D03*
Y222825D02*
D03*
Y224794D02*
D03*
X149307D02*
D03*
Y222825D02*
D03*
Y220857D02*
D03*
X270055D02*
D03*
Y222825D02*
D03*
Y224794D02*
D03*
X265055D02*
D03*
Y222825D02*
D03*
Y220857D02*
D03*
X385803D02*
D03*
Y222825D02*
D03*
Y224794D02*
D03*
X380803D02*
D03*
Y222825D02*
D03*
Y220857D02*
D03*
X154307Y424105D02*
D03*
Y426073D02*
D03*
Y428042D02*
D03*
X149307D02*
D03*
Y426073D02*
D03*
Y424105D02*
D03*
X270055D02*
D03*
Y426073D02*
D03*
Y428042D02*
D03*
X265055D02*
D03*
Y426073D02*
D03*
Y424105D02*
D03*
X385803D02*
D03*
Y426073D02*
D03*
Y428042D02*
D03*
X380803D02*
D03*
Y426073D02*
D03*
Y424105D02*
D03*
D72*
X175394Y270394D02*
D03*
X177953D02*
D03*
X180512D02*
D03*
X172835D02*
D03*
X183071D02*
D03*
X291142D02*
D03*
X293701D02*
D03*
X296260D02*
D03*
X288583D02*
D03*
X298819D02*
D03*
X406890D02*
D03*
X409449D02*
D03*
X412008D02*
D03*
X404331D02*
D03*
X414567D02*
D03*
X175394Y473642D02*
D03*
X177953D02*
D03*
X180512D02*
D03*
X172835D02*
D03*
X183071D02*
D03*
X291142D02*
D03*
X293701D02*
D03*
X296260D02*
D03*
X288583D02*
D03*
X298819D02*
D03*
X406890D02*
D03*
X409449D02*
D03*
X412008D02*
D03*
X404331D02*
D03*
X414567D02*
D03*
D73*
X162205Y280925D02*
D03*
X193701D02*
D03*
X277953D02*
D03*
X309449D02*
D03*
X393701D02*
D03*
X425197D02*
D03*
X162205Y484173D02*
D03*
X193701D02*
D03*
X277953D02*
D03*
X309449D02*
D03*
X393701D02*
D03*
X425197D02*
D03*
D74*
X173228Y280925D02*
D03*
X182677D02*
D03*
X288977D02*
D03*
X298425D02*
D03*
X404725D02*
D03*
X414173D02*
D03*
X173228Y484173D02*
D03*
X182677D02*
D03*
X288977D02*
D03*
X298425D02*
D03*
X404725D02*
D03*
X414173D02*
D03*
D75*
X159653Y171435D02*
D03*
Y160215D02*
D03*
X150607Y171435D02*
D03*
Y160215D02*
D03*
X275401Y171435D02*
D03*
Y160215D02*
D03*
X266355Y171435D02*
D03*
Y160215D02*
D03*
X391149Y171435D02*
D03*
Y160215D02*
D03*
X382103Y171435D02*
D03*
Y160215D02*
D03*
X159653Y374683D02*
D03*
Y363463D02*
D03*
X150607Y374683D02*
D03*
Y363463D02*
D03*
X275401Y374683D02*
D03*
Y363463D02*
D03*
X266355Y374683D02*
D03*
Y363463D02*
D03*
X391149Y374683D02*
D03*
Y363463D02*
D03*
X382103Y374683D02*
D03*
Y363463D02*
D03*
D76*
X157653Y196325D02*
D03*
X273401D02*
D03*
X389149D02*
D03*
X157653Y399573D02*
D03*
X273401D02*
D03*
X389149D02*
D03*
D77*
X171236Y207152D02*
D03*
Y205184D02*
D03*
Y203215D02*
D03*
Y201247D02*
D03*
Y199278D02*
D03*
Y197309D02*
D03*
Y195341D02*
D03*
Y193372D02*
D03*
Y191404D02*
D03*
Y189435D02*
D03*
Y187467D02*
D03*
Y185498D02*
D03*
X168480Y182743D02*
D03*
X166511D02*
D03*
X164543D02*
D03*
X162574D02*
D03*
X160606D02*
D03*
X158637D02*
D03*
X156669D02*
D03*
X154700D02*
D03*
X152732D02*
D03*
X150763D02*
D03*
X148794D02*
D03*
X146826D02*
D03*
X144070Y185498D02*
D03*
Y187467D02*
D03*
Y189435D02*
D03*
Y191404D02*
D03*
Y193372D02*
D03*
Y195341D02*
D03*
Y197309D02*
D03*
Y199278D02*
D03*
Y201247D02*
D03*
Y203215D02*
D03*
Y205184D02*
D03*
Y207152D02*
D03*
X146826Y209908D02*
D03*
X148794D02*
D03*
X150763D02*
D03*
X152732D02*
D03*
X154700D02*
D03*
X156669D02*
D03*
X158637D02*
D03*
X160606D02*
D03*
X162574D02*
D03*
X164543D02*
D03*
X166511D02*
D03*
X168480D02*
D03*
X286983Y207152D02*
D03*
Y205184D02*
D03*
Y203215D02*
D03*
Y201247D02*
D03*
Y199278D02*
D03*
Y197309D02*
D03*
Y195341D02*
D03*
Y193372D02*
D03*
Y191404D02*
D03*
Y189435D02*
D03*
Y187467D02*
D03*
Y185498D02*
D03*
X284228Y182743D02*
D03*
X282259D02*
D03*
X280291D02*
D03*
X278322D02*
D03*
X276354D02*
D03*
X274385D02*
D03*
X272417D02*
D03*
X270448D02*
D03*
X268480D02*
D03*
X266511D02*
D03*
X264543D02*
D03*
X262574D02*
D03*
X259818Y185498D02*
D03*
Y187467D02*
D03*
Y189435D02*
D03*
Y191404D02*
D03*
Y193372D02*
D03*
Y195341D02*
D03*
Y197309D02*
D03*
Y199278D02*
D03*
Y201247D02*
D03*
Y203215D02*
D03*
Y205184D02*
D03*
Y207152D02*
D03*
X262574Y209908D02*
D03*
X264543D02*
D03*
X266511D02*
D03*
X268480D02*
D03*
X270448D02*
D03*
X272417D02*
D03*
X274385D02*
D03*
X276354D02*
D03*
X278322D02*
D03*
X280291D02*
D03*
X282259D02*
D03*
X284228D02*
D03*
X402732Y207152D02*
D03*
Y205184D02*
D03*
Y203215D02*
D03*
Y201247D02*
D03*
Y199278D02*
D03*
Y197309D02*
D03*
Y195341D02*
D03*
Y193372D02*
D03*
Y191404D02*
D03*
Y189435D02*
D03*
Y187467D02*
D03*
Y185498D02*
D03*
X399976Y182743D02*
D03*
X398007D02*
D03*
X396039D02*
D03*
X394070D02*
D03*
X392102D02*
D03*
X390133D02*
D03*
X388165D02*
D03*
X386196D02*
D03*
X384228D02*
D03*
X382259D02*
D03*
X380291D02*
D03*
X378322D02*
D03*
X375566Y185498D02*
D03*
Y187467D02*
D03*
Y189435D02*
D03*
Y191404D02*
D03*
Y193372D02*
D03*
Y195341D02*
D03*
Y197309D02*
D03*
Y199278D02*
D03*
Y201247D02*
D03*
Y203215D02*
D03*
Y205184D02*
D03*
Y207152D02*
D03*
X378322Y209908D02*
D03*
X380291D02*
D03*
X382259D02*
D03*
X384228D02*
D03*
X386196D02*
D03*
X388165D02*
D03*
X390133D02*
D03*
X392102D02*
D03*
X394070D02*
D03*
X396039D02*
D03*
X398007D02*
D03*
X399976D02*
D03*
X171236Y410400D02*
D03*
Y408431D02*
D03*
Y406463D02*
D03*
Y404494D02*
D03*
Y402526D02*
D03*
Y400558D02*
D03*
Y398589D02*
D03*
Y396620D02*
D03*
Y394652D02*
D03*
Y392684D02*
D03*
Y390715D02*
D03*
Y388747D02*
D03*
X168480Y385991D02*
D03*
X166511D02*
D03*
X164543D02*
D03*
X162574D02*
D03*
X160606D02*
D03*
X158637D02*
D03*
X156669D02*
D03*
X154700D02*
D03*
X152732D02*
D03*
X150763D02*
D03*
X148794D02*
D03*
X146826D02*
D03*
X144070Y388747D02*
D03*
Y390715D02*
D03*
Y392684D02*
D03*
Y394652D02*
D03*
Y396620D02*
D03*
Y398589D02*
D03*
Y400558D02*
D03*
Y402526D02*
D03*
Y404494D02*
D03*
Y406463D02*
D03*
Y408431D02*
D03*
Y410400D02*
D03*
X146826Y413156D02*
D03*
X148794D02*
D03*
X150763D02*
D03*
X152732D02*
D03*
X154700D02*
D03*
X156669D02*
D03*
X158637D02*
D03*
X160606D02*
D03*
X162574D02*
D03*
X164543D02*
D03*
X166511D02*
D03*
X168480D02*
D03*
X286983Y410400D02*
D03*
Y408431D02*
D03*
Y406463D02*
D03*
Y404494D02*
D03*
Y402526D02*
D03*
Y400558D02*
D03*
Y398589D02*
D03*
Y396620D02*
D03*
Y394652D02*
D03*
Y392684D02*
D03*
Y390715D02*
D03*
Y388747D02*
D03*
X284228Y385991D02*
D03*
X282259D02*
D03*
X280291D02*
D03*
X278322D02*
D03*
X276354D02*
D03*
X274385D02*
D03*
X272417D02*
D03*
X270448D02*
D03*
X268480D02*
D03*
X266511D02*
D03*
X264543D02*
D03*
X262574D02*
D03*
X259818Y388747D02*
D03*
Y390715D02*
D03*
Y392684D02*
D03*
Y394652D02*
D03*
Y396620D02*
D03*
Y398589D02*
D03*
Y400558D02*
D03*
Y402526D02*
D03*
Y404494D02*
D03*
Y406463D02*
D03*
Y408431D02*
D03*
Y410400D02*
D03*
X262574Y413156D02*
D03*
X264543D02*
D03*
X266511D02*
D03*
X268480D02*
D03*
X270448D02*
D03*
X272417D02*
D03*
X274385D02*
D03*
X276354D02*
D03*
X278322D02*
D03*
X280291D02*
D03*
X282259D02*
D03*
X284228D02*
D03*
X402732Y410400D02*
D03*
Y408431D02*
D03*
Y406463D02*
D03*
Y404494D02*
D03*
Y402526D02*
D03*
Y400558D02*
D03*
Y398589D02*
D03*
Y396620D02*
D03*
Y394652D02*
D03*
Y392684D02*
D03*
Y390715D02*
D03*
Y388747D02*
D03*
X399976Y385991D02*
D03*
X398007D02*
D03*
X396039D02*
D03*
X394070D02*
D03*
X392102D02*
D03*
X390133D02*
D03*
X388165D02*
D03*
X386196D02*
D03*
X384228D02*
D03*
X382259D02*
D03*
X380291D02*
D03*
X378322D02*
D03*
X375566Y388747D02*
D03*
Y390715D02*
D03*
Y392684D02*
D03*
Y394652D02*
D03*
Y396620D02*
D03*
Y398589D02*
D03*
Y400558D02*
D03*
Y402526D02*
D03*
Y404494D02*
D03*
Y406463D02*
D03*
Y408431D02*
D03*
Y410400D02*
D03*
X378322Y413156D02*
D03*
X380291D02*
D03*
X382259D02*
D03*
X384228D02*
D03*
X386196D02*
D03*
X388165D02*
D03*
X390133D02*
D03*
X392102D02*
D03*
X394070D02*
D03*
X396039D02*
D03*
X398007D02*
D03*
X399976D02*
D03*
D78*
X472441Y118110D02*
D03*
Y472441D02*
D03*
X118110Y118110D02*
D03*
Y472441D02*
D03*
D79*
X179353Y103825D02*
D03*
X295101D02*
D03*
X410849D02*
D03*
X179353Y307073D02*
D03*
X295101D02*
D03*
X410849D02*
D03*
D80*
X222953Y155925D02*
D03*
Y165925D02*
D03*
Y175925D02*
D03*
Y185925D02*
D03*
Y195925D02*
D03*
Y205925D02*
D03*
Y215925D02*
D03*
Y225925D02*
D03*
Y235925D02*
D03*
Y245925D02*
D03*
Y255925D02*
D03*
X132953Y155925D02*
D03*
Y165925D02*
D03*
Y175925D02*
D03*
Y185925D02*
D03*
Y195925D02*
D03*
Y205925D02*
D03*
Y215925D02*
D03*
Y225925D02*
D03*
Y235925D02*
D03*
Y245925D02*
D03*
Y255925D02*
D03*
X338701Y155925D02*
D03*
Y165925D02*
D03*
Y175925D02*
D03*
Y185925D02*
D03*
Y195925D02*
D03*
Y205925D02*
D03*
Y215925D02*
D03*
Y225925D02*
D03*
Y235925D02*
D03*
Y245925D02*
D03*
Y255925D02*
D03*
X248701Y155925D02*
D03*
Y165925D02*
D03*
Y175925D02*
D03*
Y185925D02*
D03*
Y195925D02*
D03*
Y205925D02*
D03*
Y215925D02*
D03*
Y225925D02*
D03*
Y235925D02*
D03*
Y245925D02*
D03*
Y255925D02*
D03*
X454449Y155925D02*
D03*
Y165925D02*
D03*
Y175925D02*
D03*
Y185925D02*
D03*
Y195925D02*
D03*
Y205925D02*
D03*
Y215925D02*
D03*
Y225925D02*
D03*
Y235925D02*
D03*
Y245925D02*
D03*
Y255925D02*
D03*
X364449Y155925D02*
D03*
Y165925D02*
D03*
Y175925D02*
D03*
Y185925D02*
D03*
Y195925D02*
D03*
Y205925D02*
D03*
Y215925D02*
D03*
Y225925D02*
D03*
Y235925D02*
D03*
Y245925D02*
D03*
Y255925D02*
D03*
X222953Y359173D02*
D03*
Y369173D02*
D03*
Y379173D02*
D03*
Y389173D02*
D03*
Y399173D02*
D03*
Y409173D02*
D03*
Y419173D02*
D03*
Y429173D02*
D03*
Y439173D02*
D03*
Y449173D02*
D03*
Y459173D02*
D03*
X132953Y359173D02*
D03*
Y369173D02*
D03*
Y379173D02*
D03*
Y389173D02*
D03*
Y399173D02*
D03*
Y409173D02*
D03*
Y419173D02*
D03*
Y429173D02*
D03*
Y439173D02*
D03*
Y449173D02*
D03*
Y459173D02*
D03*
X338701Y359173D02*
D03*
Y369173D02*
D03*
Y379173D02*
D03*
Y389173D02*
D03*
Y399173D02*
D03*
Y409173D02*
D03*
Y419173D02*
D03*
Y429173D02*
D03*
Y439173D02*
D03*
Y449173D02*
D03*
Y459173D02*
D03*
X248701Y359173D02*
D03*
Y369173D02*
D03*
Y379173D02*
D03*
Y389173D02*
D03*
Y399173D02*
D03*
Y409173D02*
D03*
Y419173D02*
D03*
Y429173D02*
D03*
Y439173D02*
D03*
Y449173D02*
D03*
Y459173D02*
D03*
X454449Y359173D02*
D03*
Y369173D02*
D03*
Y379173D02*
D03*
Y389173D02*
D03*
Y399173D02*
D03*
Y409173D02*
D03*
Y419173D02*
D03*
Y429173D02*
D03*
Y439173D02*
D03*
Y449173D02*
D03*
Y459173D02*
D03*
X364449Y359173D02*
D03*
Y369173D02*
D03*
Y379173D02*
D03*
Y389173D02*
D03*
Y399173D02*
D03*
Y409173D02*
D03*
Y419173D02*
D03*
Y429173D02*
D03*
Y439173D02*
D03*
Y449173D02*
D03*
Y459173D02*
D03*
D81*
X222953Y265925D02*
D03*
X132953D02*
D03*
X338701D02*
D03*
X248701D02*
D03*
X454449D02*
D03*
X364449D02*
D03*
X222953Y469173D02*
D03*
X132953D02*
D03*
X338701D02*
D03*
X248701D02*
D03*
X454449D02*
D03*
X364449D02*
D03*
D82*
X149053Y112525D02*
D03*
Y140084D02*
D03*
X206853Y112325D02*
D03*
Y139884D02*
D03*
X264801Y112525D02*
D03*
Y140084D02*
D03*
X322601Y112325D02*
D03*
Y139884D02*
D03*
X380549Y112525D02*
D03*
Y140084D02*
D03*
X438349Y112325D02*
D03*
Y139884D02*
D03*
X149053Y315773D02*
D03*
Y343332D02*
D03*
X206853Y315573D02*
D03*
Y343132D02*
D03*
X264801Y315773D02*
D03*
Y343332D02*
D03*
X322601Y315573D02*
D03*
Y343132D02*
D03*
X380549Y315773D02*
D03*
Y343332D02*
D03*
X438349Y315573D02*
D03*
Y343132D02*
D03*
D83*
X169783Y271280D02*
D03*
X186122D02*
D03*
X285532D02*
D03*
X301870D02*
D03*
X401280D02*
D03*
X417618D02*
D03*
X169783Y474528D02*
D03*
X186122D02*
D03*
X285532D02*
D03*
X301870D02*
D03*
X401280D02*
D03*
X417618D02*
D03*
D84*
X220453Y278425D02*
D03*
X135453D02*
D03*
X336201D02*
D03*
X251201D02*
D03*
X451949D02*
D03*
X366949D02*
D03*
X220453Y481673D02*
D03*
X135453D02*
D03*
X336201D02*
D03*
X251201D02*
D03*
X451949D02*
D03*
X366949D02*
D03*
M02*
