G04*
G04 #@! TF.GenerationSoftware,Altium Limited,Altium Designer,19.0.10 (269)*
G04*
G04 Layer_Color=128*
%FSLAX25Y25*%
%MOIN*%
G70*
G01*
G75*
%ADD13R,0.03150X0.03543*%
%ADD14R,0.03543X0.03150*%
%ADD40C,0.06000*%
%ADD49R,0.03150X0.06000*%
%ADD50R,0.04921X0.03347*%
D13*
X182159Y265425D02*
D03*
X176647D02*
D03*
X297907D02*
D03*
X292395D02*
D03*
X413655D02*
D03*
X408143D02*
D03*
X182159Y468673D02*
D03*
X176647D02*
D03*
X297907D02*
D03*
X292395D02*
D03*
X413655D02*
D03*
X408143D02*
D03*
D14*
X202453Y169819D02*
D03*
Y175331D02*
D03*
X318201Y169819D02*
D03*
Y175331D02*
D03*
X433949Y169819D02*
D03*
Y175331D02*
D03*
X202453Y373067D02*
D03*
Y378579D02*
D03*
X318201Y373067D02*
D03*
Y378579D02*
D03*
X433949Y373067D02*
D03*
Y378579D02*
D03*
D40*
X168653Y228025D02*
D03*
Y220725D02*
D03*
X284401Y228025D02*
D03*
Y220725D02*
D03*
X400149Y228025D02*
D03*
Y220725D02*
D03*
X168653Y431273D02*
D03*
Y423973D02*
D03*
X284401Y431273D02*
D03*
Y423973D02*
D03*
X400149Y431273D02*
D03*
Y423973D02*
D03*
D49*
X186535Y257832D02*
D03*
Y227320D02*
D03*
X302283Y257832D02*
D03*
Y227320D02*
D03*
X418031Y257832D02*
D03*
Y227320D02*
D03*
X186535Y461080D02*
D03*
Y430568D02*
D03*
X302283Y461080D02*
D03*
Y430568D02*
D03*
X418031Y461080D02*
D03*
Y430568D02*
D03*
D50*
X150853Y129225D02*
D03*
X143766D02*
D03*
X157953D02*
D03*
X150596Y123125D02*
D03*
X143509D02*
D03*
X157696D02*
D03*
X266601Y129225D02*
D03*
X259514D02*
D03*
X273701D02*
D03*
X266344Y123125D02*
D03*
X259258D02*
D03*
X273444D02*
D03*
X382349Y129225D02*
D03*
X375262D02*
D03*
X389449D02*
D03*
X382092Y123125D02*
D03*
X375006D02*
D03*
X389192D02*
D03*
X150853Y332473D02*
D03*
X143766D02*
D03*
X157953D02*
D03*
X150596Y326373D02*
D03*
X143509D02*
D03*
X157696D02*
D03*
X266601Y332473D02*
D03*
X259514D02*
D03*
X273701D02*
D03*
X266344Y326373D02*
D03*
X259258D02*
D03*
X273444D02*
D03*
X382349Y332473D02*
D03*
X375262D02*
D03*
X389449D02*
D03*
X382092Y326373D02*
D03*
X375006D02*
D03*
X389192D02*
D03*
M02*
