G04*
G04 #@! TF.GenerationSoftware,Altium Limited,Altium Designer,19.0.10 (269)*
G04*
G04 Layer_Color=16711935*
%FSLAX25Y25*%
%MOIN*%
G70*
G01*
G75*
%ADD56R,0.03950X0.04343*%
%ADD57R,0.04343X0.03950*%
%ADD78C,0.09937*%
%ADD79C,0.05622*%
%ADD80C,0.06706*%
%ADD81R,0.06706X0.06706*%
%ADD82C,0.07493*%
%ADD83C,0.03556*%
%ADD84C,0.10800*%
%ADD85R,0.03950X0.06800*%
%ADD86C,0.06800*%
%ADD87R,0.05721X0.04147*%
D56*
X182159Y265425D02*
D03*
X176647D02*
D03*
X297907D02*
D03*
X292395D02*
D03*
X413655D02*
D03*
X408143D02*
D03*
X182159Y468673D02*
D03*
X176647D02*
D03*
X297907D02*
D03*
X292395D02*
D03*
X413655D02*
D03*
X408143D02*
D03*
D57*
X202453Y169819D02*
D03*
Y175331D02*
D03*
X318201Y169819D02*
D03*
Y175331D02*
D03*
X433949Y169819D02*
D03*
Y175331D02*
D03*
X202453Y373067D02*
D03*
Y378579D02*
D03*
X318201Y373067D02*
D03*
Y378579D02*
D03*
X433949Y373067D02*
D03*
Y378579D02*
D03*
D78*
X472441Y118110D02*
D03*
Y472441D02*
D03*
X118110Y118110D02*
D03*
Y472441D02*
D03*
D79*
X179353Y103825D02*
D03*
X295101D02*
D03*
X410849D02*
D03*
X179353Y307073D02*
D03*
X295101D02*
D03*
X410849D02*
D03*
D80*
X222953Y155925D02*
D03*
Y165925D02*
D03*
Y175925D02*
D03*
Y185925D02*
D03*
Y195925D02*
D03*
Y205925D02*
D03*
Y215925D02*
D03*
Y225925D02*
D03*
Y235925D02*
D03*
Y245925D02*
D03*
Y255925D02*
D03*
X132953Y155925D02*
D03*
Y165925D02*
D03*
Y175925D02*
D03*
Y185925D02*
D03*
Y195925D02*
D03*
Y205925D02*
D03*
Y215925D02*
D03*
Y225925D02*
D03*
Y235925D02*
D03*
Y245925D02*
D03*
Y255925D02*
D03*
X338701Y155925D02*
D03*
Y165925D02*
D03*
Y175925D02*
D03*
Y185925D02*
D03*
Y195925D02*
D03*
Y205925D02*
D03*
Y215925D02*
D03*
Y225925D02*
D03*
Y235925D02*
D03*
Y245925D02*
D03*
Y255925D02*
D03*
X248701Y155925D02*
D03*
Y165925D02*
D03*
Y175925D02*
D03*
Y185925D02*
D03*
Y195925D02*
D03*
Y205925D02*
D03*
Y215925D02*
D03*
Y225925D02*
D03*
Y235925D02*
D03*
Y245925D02*
D03*
Y255925D02*
D03*
X454449Y155925D02*
D03*
Y165925D02*
D03*
Y175925D02*
D03*
Y185925D02*
D03*
Y195925D02*
D03*
Y205925D02*
D03*
Y215925D02*
D03*
Y225925D02*
D03*
Y235925D02*
D03*
Y245925D02*
D03*
Y255925D02*
D03*
X364449Y155925D02*
D03*
Y165925D02*
D03*
Y175925D02*
D03*
Y185925D02*
D03*
Y195925D02*
D03*
Y205925D02*
D03*
Y215925D02*
D03*
Y225925D02*
D03*
Y235925D02*
D03*
Y245925D02*
D03*
Y255925D02*
D03*
X222953Y359173D02*
D03*
Y369173D02*
D03*
Y379173D02*
D03*
Y389173D02*
D03*
Y399173D02*
D03*
Y409173D02*
D03*
Y419173D02*
D03*
Y429173D02*
D03*
Y439173D02*
D03*
Y449173D02*
D03*
Y459173D02*
D03*
X132953Y359173D02*
D03*
Y369173D02*
D03*
Y379173D02*
D03*
Y389173D02*
D03*
Y399173D02*
D03*
Y409173D02*
D03*
Y419173D02*
D03*
Y429173D02*
D03*
Y439173D02*
D03*
Y449173D02*
D03*
Y459173D02*
D03*
X338701Y359173D02*
D03*
Y369173D02*
D03*
Y379173D02*
D03*
Y389173D02*
D03*
Y399173D02*
D03*
Y409173D02*
D03*
Y419173D02*
D03*
Y429173D02*
D03*
Y439173D02*
D03*
Y449173D02*
D03*
Y459173D02*
D03*
X248701Y359173D02*
D03*
Y369173D02*
D03*
Y379173D02*
D03*
Y389173D02*
D03*
Y399173D02*
D03*
Y409173D02*
D03*
Y419173D02*
D03*
Y429173D02*
D03*
Y439173D02*
D03*
Y449173D02*
D03*
Y459173D02*
D03*
X454449Y359173D02*
D03*
Y369173D02*
D03*
Y379173D02*
D03*
Y389173D02*
D03*
Y399173D02*
D03*
Y409173D02*
D03*
Y419173D02*
D03*
Y429173D02*
D03*
Y439173D02*
D03*
Y449173D02*
D03*
Y459173D02*
D03*
X364449Y359173D02*
D03*
Y369173D02*
D03*
Y379173D02*
D03*
Y389173D02*
D03*
Y399173D02*
D03*
Y409173D02*
D03*
Y419173D02*
D03*
Y429173D02*
D03*
Y439173D02*
D03*
Y449173D02*
D03*
Y459173D02*
D03*
D81*
X222953Y265925D02*
D03*
X132953D02*
D03*
X338701D02*
D03*
X248701D02*
D03*
X454449D02*
D03*
X364449D02*
D03*
X222953Y469173D02*
D03*
X132953D02*
D03*
X338701D02*
D03*
X248701D02*
D03*
X454449D02*
D03*
X364449D02*
D03*
D82*
X149053Y112525D02*
D03*
Y140084D02*
D03*
X206853Y112325D02*
D03*
Y139884D02*
D03*
X264801Y112525D02*
D03*
Y140084D02*
D03*
X322601Y112325D02*
D03*
Y139884D02*
D03*
X380549Y112525D02*
D03*
Y140084D02*
D03*
X438349Y112325D02*
D03*
Y139884D02*
D03*
X149053Y315773D02*
D03*
Y343332D02*
D03*
X206853Y315573D02*
D03*
Y343132D02*
D03*
X264801Y315773D02*
D03*
Y343332D02*
D03*
X322601Y315573D02*
D03*
Y343132D02*
D03*
X380549Y315773D02*
D03*
Y343332D02*
D03*
X438349Y315573D02*
D03*
Y343132D02*
D03*
D83*
X169783Y271280D02*
D03*
X186122D02*
D03*
X285532D02*
D03*
X301870D02*
D03*
X401280D02*
D03*
X417618D02*
D03*
X169783Y474528D02*
D03*
X186122D02*
D03*
X285532D02*
D03*
X301870D02*
D03*
X401280D02*
D03*
X417618D02*
D03*
D84*
X220453Y278425D02*
D03*
X135453D02*
D03*
X336201D02*
D03*
X251201D02*
D03*
X451949D02*
D03*
X366949D02*
D03*
X220453Y481673D02*
D03*
X135453D02*
D03*
X336201D02*
D03*
X251201D02*
D03*
X451949D02*
D03*
X366949D02*
D03*
D85*
X186535Y257832D02*
D03*
Y227320D02*
D03*
X302283Y257832D02*
D03*
Y227320D02*
D03*
X418031Y257832D02*
D03*
Y227320D02*
D03*
X186535Y461080D02*
D03*
Y430568D02*
D03*
X302283Y461080D02*
D03*
Y430568D02*
D03*
X418031Y461080D02*
D03*
Y430568D02*
D03*
D86*
X168653Y228025D02*
D03*
Y220725D02*
D03*
X284401Y228025D02*
D03*
Y220725D02*
D03*
X400149Y228025D02*
D03*
Y220725D02*
D03*
X168653Y431273D02*
D03*
Y423973D02*
D03*
X284401Y431273D02*
D03*
Y423973D02*
D03*
X400149Y431273D02*
D03*
Y423973D02*
D03*
D87*
X150853Y129225D02*
D03*
X143766D02*
D03*
X157953D02*
D03*
X150596Y123125D02*
D03*
X143509D02*
D03*
X157696D02*
D03*
X266601Y129225D02*
D03*
X259514D02*
D03*
X273701D02*
D03*
X266344Y123125D02*
D03*
X259258D02*
D03*
X273444D02*
D03*
X382349Y129225D02*
D03*
X375262D02*
D03*
X389449D02*
D03*
X382092Y123125D02*
D03*
X375006D02*
D03*
X389192D02*
D03*
X150853Y332473D02*
D03*
X143766D02*
D03*
X157953D02*
D03*
X150596Y326373D02*
D03*
X143509D02*
D03*
X157696D02*
D03*
X266601Y332473D02*
D03*
X259514D02*
D03*
X273701D02*
D03*
X266344Y326373D02*
D03*
X259258D02*
D03*
X273444D02*
D03*
X382349Y332473D02*
D03*
X375262D02*
D03*
X389449D02*
D03*
X382092Y326373D02*
D03*
X375006D02*
D03*
X389192D02*
D03*
M02*
