G04*
G04 #@! TF.GenerationSoftware,Altium Limited,Altium Designer,19.0.10 (269)*
G04*
G04 Layer_Color=32768*
%FSLAX25Y25*%
%MOIN*%
G70*
G01*
G75*
%ADD36C,0.01000*%
D36*
X127853Y102881D02*
G03*
X132360Y98373I4507J0D01*
G01*
X132360Y285873D02*
G03*
X127853Y281366I0J-4507D01*
G01*
X227853Y281366D02*
G03*
X223345Y285873I-4507J0D01*
G01*
X223345Y98373D02*
G03*
X227853Y102881I0J4507D01*
G01*
X339145Y98373D02*
G03*
X343653Y102881I0J4507D01*
G01*
X343653Y281366D02*
G03*
X339145Y285873I-4507J0D01*
G01*
X248160Y285873D02*
G03*
X243653Y281366I0J-4507D01*
G01*
X243653Y102881D02*
G03*
X248160Y98373I4507J0D01*
G01*
X454845D02*
G03*
X459353Y102881I0J4507D01*
G01*
X459353Y281366D02*
G03*
X454845Y285873I-4507J0D01*
G01*
X363860Y285873D02*
G03*
X359353Y281366I0J-4507D01*
G01*
X359353Y102881D02*
G03*
X363860Y98373I4507J0D01*
G01*
X359453Y306181D02*
G03*
X363960Y301673I4507J0D01*
G01*
X363960Y489173D02*
G03*
X359453Y484666I0J-4507D01*
G01*
X459453Y484666D02*
G03*
X454945Y489173I-4507J0D01*
G01*
X454945Y301673D02*
G03*
X459453Y306181I0J4507D01*
G01*
X243753D02*
G03*
X248260Y301673I4507J0D01*
G01*
X248060Y489173D02*
G03*
X243553Y484666I0J-4507D01*
G01*
X343753Y484666D02*
G03*
X339245Y489173I-4507J0D01*
G01*
X339245Y301673D02*
G03*
X343753Y306181I0J4507D01*
G01*
X223445Y301673D02*
G03*
X227953Y306181I0J4507D01*
G01*
X227953Y484666D02*
G03*
X223445Y489173I-4507J0D01*
G01*
X132460Y489173D02*
G03*
X127953Y484666I0J-4507D01*
G01*
X127953Y306181D02*
G03*
X132460Y301673I4507J0D01*
G01*
X158000Y286650D02*
Y296000D01*
X197370D01*
Y286598D02*
Y296000D01*
X197317Y286650D02*
X197370Y286598D01*
X158000Y286650D02*
X197317D01*
X272000D02*
Y296000D01*
X311370D01*
Y286598D02*
Y296000D01*
X311317Y286650D02*
X311370Y286598D01*
X272000Y286650D02*
X311317D01*
X389764Y286426D02*
X429081D01*
X429134Y286373D01*
Y295776D01*
X389764D02*
X429134D01*
X389764Y286426D02*
Y295776D01*
X127800Y98373D02*
X132600D01*
X127800Y102881D02*
X127853D01*
X132360Y98373D02*
X132600D01*
X127800D02*
Y102881D01*
X127853Y285926D02*
X132360D01*
X127853Y281126D02*
Y281366D01*
X132360Y285873D02*
Y285926D01*
X127853Y281126D02*
Y285926D01*
X227906Y281366D02*
Y285873D01*
X223106D02*
X223345D01*
X227853Y281366D02*
X227906D01*
X223106Y285873D02*
X227906D01*
X223345Y98321D02*
X227853D01*
Y102881D02*
Y103121D01*
X223345Y98321D02*
Y98373D01*
X227853Y98321D02*
Y103121D01*
X343653Y98321D02*
Y103121D01*
X339145Y98321D02*
Y98373D01*
X343653Y102881D02*
Y103121D01*
X339145Y98321D02*
X343653D01*
X338906Y285873D02*
X343706D01*
X343653Y281366D02*
X343706D01*
X338906Y285873D02*
X339145D01*
X343706Y281366D02*
Y285873D01*
X243653Y281126D02*
Y285926D01*
X248160Y285873D02*
Y285926D01*
X243653Y281126D02*
Y281366D01*
Y285926D02*
X248160D01*
X243600Y98373D02*
Y102881D01*
X248160Y98373D02*
X248400D01*
X243600Y102881D02*
X243653D01*
X243600Y98373D02*
X248400D01*
X459353Y98321D02*
Y103121D01*
X454845Y98321D02*
Y98373D01*
X459353Y102881D02*
Y103121D01*
X454845Y98321D02*
X459353D01*
X454606Y285873D02*
X459406D01*
X459353Y281366D02*
X459406D01*
X454606Y285873D02*
X454845D01*
X459406Y281366D02*
Y285873D01*
X359353Y281126D02*
Y285926D01*
X363860Y285873D02*
Y285926D01*
X359353Y281126D02*
Y281366D01*
Y285926D02*
X363860D01*
X359300Y98373D02*
Y102881D01*
X363860Y98373D02*
X364100D01*
X359300Y102881D02*
X359353D01*
X359300Y98373D02*
X364100D01*
X359400Y301673D02*
X364200D01*
X359400Y306181D02*
X359453D01*
X363960Y301673D02*
X364200D01*
X359400D02*
Y306181D01*
X359453Y489226D02*
X363960D01*
X359453Y484426D02*
Y484666D01*
X363960Y489173D02*
Y489226D01*
X359453Y484426D02*
Y489226D01*
X459506Y484666D02*
Y489173D01*
X454706D02*
X454945D01*
X459453Y484666D02*
X459506D01*
X454706Y489173D02*
X459506D01*
X454945Y301621D02*
X459453D01*
Y306181D02*
Y306420D01*
X454945Y301621D02*
Y301673D01*
X459453Y301621D02*
Y306420D01*
X243700Y301673D02*
X248500D01*
X243700Y306181D02*
X243753D01*
X248260Y301673D02*
X248500D01*
X243700D02*
Y306181D01*
X243553Y489226D02*
X248060D01*
X243553Y484426D02*
Y484666D01*
X248060Y489173D02*
Y489226D01*
X243553Y484426D02*
Y489226D01*
X343806Y484666D02*
Y489173D01*
X339006D02*
X339245D01*
X343753Y484666D02*
X343806D01*
X339006Y489173D02*
X343806D01*
X339245Y301621D02*
X343753D01*
Y306181D02*
Y306420D01*
X339245Y301621D02*
Y301673D01*
X343753Y301621D02*
Y306420D01*
X227953Y301621D02*
Y306420D01*
X223445Y301621D02*
Y301673D01*
X227953Y306181D02*
Y306420D01*
X223445Y301621D02*
X227953D01*
X223206Y489173D02*
X228006D01*
X227953Y484666D02*
X228006D01*
X223206Y489173D02*
X223445D01*
X228006Y484666D02*
Y489173D01*
X127953Y484426D02*
Y489226D01*
X132460Y489173D02*
Y489226D01*
X127953Y484426D02*
Y484666D01*
Y489226D02*
X132460D01*
X127900Y301673D02*
Y306181D01*
X132460Y301673D02*
X132700D01*
X127900Y306181D02*
X127953D01*
X127900Y301673D02*
X132700D01*
M02*
